<svg xmlns="http://www.w3.org/2000/svg" version="1.1" width="3300" height="2000"><g id="Notes"><style>
    text {
      font-family: monospace;
      text-anchor: middle;
    }
    text.emphasis {
      font-weight:bold;
    }
    text.lanchor {
      text-anchor: start;
    }
  </style><rect height="2200" id="artboard" fill="white" width="3300" x="0" y="0"/><line id="" style="fill:none;stroke:black;stroke-width:0.5;" x1="263" x2="3036" y1="292" y2="292"/><text class="lanchor emphasis" transform="matrix(1 0 0 1 263 322)">Weight/Scale Variations</text><text transform="matrix(1 0 0 1 559.711 322)">Ultralight</text><text transform="matrix(1 0 0 1 856.422 322)">Thin</text><text transform="matrix(1 0 0 1 1153.13 322)">Light</text><text transform="matrix(1 0 0 1 1449.84 322)">Regular</text><text transform="matrix(1 0 0 1 1746.56 322)">Medium</text><text transform="matrix(1 0 0 1 2043.27 322)">Semibold</text><text transform="matrix(1 0 0 1 2339.98 322)">Bold</text><text transform="matrix(1 0 0 1 2636.69 322)">Heavy</text><text transform="matrix(1 0 0 1 2933.4 322)">Black</text><text id="template-version" style="text-anchor: end;" transform="matrix(1 0 0 1 3036 1933)">Template v.1.0</text><text class="lanchor" transform="matrix(1 0 0 1 263 726)">Small</text><text class="lanchor" transform="matrix(1 0 0 1 263 1156)">Medium</text><text class="lanchor" transform="matrix(1 0 0 1 263 1586)">Large</text></g><g id="Guides"><g id="H-reference" style="fill:#27AAE1;stroke:none;" transform="matrix(1 0 0 1 339 696)"><path d="M 54.9316 0 L 57.666 0 L 30.5664 -70.459 L 28.0762 -70.459 L 0.976562 0 L 3.66211 0 L 12.9395 -24.4629 L 45.7031 -24.4629 Z M 29.1992 -67.0898 L 29.4434 -67.0898 L 44.8242 -26.709 L 13.8184 -26.709 Z"/></g><line id="Baseline-S" style="fill:none;stroke:#27AAE1;opacity:1;stroke-width:0.577;" x1="263" x2="3036" y1="696" y2="696"/><line id="Capline-S" style="fill:none;stroke:#27AAE1;opacity:1;stroke-width:0.577;" x1="263" x2="3036" y1="625.541" y2="625.541"/><g id="H-reference" style="fill:#27AAE1;stroke:none;" transform="matrix(1 0 0 1 339 1126)"><path d="M 54.9316 0 L 57.666 0 L 30.5664 -70.459 L 28.0762 -70.459 L 0.976562 0 L 3.66211 0 L 12.9395 -24.4629 L 45.7031 -24.4629 Z M 29.1992 -67.0898 L 29.4434 -67.0898 L 44.8242 -26.709 L 13.8184 -26.709 Z"/></g><line id="Baseline-M" style="fill:none;stroke:#27AAE1;opacity:1;stroke-width:0.577;" x1="263" x2="3036" y1="1126" y2="1126"/><line id="Capline-M" style="fill:none;stroke:#27AAE1;opacity:1;stroke-width:0.577;" x1="263" x2="3036" y1="1055.54" y2="1055.54"/><g id="H-reference" style="fill:#27AAE1;stroke:none;" transform="matrix(1 0 0 1 339 1556)"><path d="M 54.9316 0 L 57.666 0 L 30.5664 -70.459 L 28.0762 -70.459 L 0.976562 0 L 3.66211 0 L 12.9395 -24.4629 L 45.7031 -24.4629 Z M 29.1992 -67.0898 L 29.4434 -67.0898 L 44.8242 -26.709 L 13.8184 -26.709 Z"/></g><line id="Baseline-L" style="fill:none;stroke:#27AAE1;opacity:1;stroke-width:0.577;" x1="263" x2="3036" y1="1556" y2="1556"/><line id="Capline-L" style="fill:none;stroke:#27AAE1;opacity:1;stroke-width:0.577;" x1="263" x2="3036" y1="1485.54" y2="1485.54"/><rect height="119.336" id="left-margin" style="fill:darkred;stroke:none;opacity:0.4;" width="12.4512" x="1394.06" y="1030.79"/><rect height="119.336" id="right-margin" style="fill:darkgreen;stroke:none;opacity:0.4;" width="12.4512" x="1502.5112" y="1030.79"/><rect x="1406.5112" y="1045" width="96" height="96" fill="none" stroke="blue" stroke-dasharray="5"/><rect x="1394.06" y="1030.79" width="120.9024" height="119.336" fill="none" stroke="blue"/></g><g id="Symbols"><g id="Bold-L" transform="matrix(1 0 0 1 2266 1556)"><path d="M30.476 33.301 Q24.179 33.301 19.749 28.871 Q15.319 24.441 15.319 18.144 V-78.929 Q15.319 -85.292 19.749 -89.77 Q24.179 -94.247 30.476 -94.247 H39.506 V-103.922 H52.729 V-94.247 H102.071 V-103.922 H115.294 V-94.247 H124.324 Q130.687 -94.247 135.165 -89.77 Q139.643 -85.292 139.643 -78.929 V18.144 Q139.643 24.441 135.165 28.871 Q130.687 33.301 124.324 33.301 H30.476 Z M30.476 18.144 H124.324 Q124.324 18.144 124.324 18.144 Q124.324 18.144 124.324 18.144 V-49.742 H30.476 V18.144 Q30.476 18.144 30.476 18.144 Q30.476 18.144 30.476 18.144 Z M30.476 -59.417 H124.324 V-78.929 Q124.324 -78.929 124.324 -78.929 Q124.324 -78.929 124.324 -78.929 H30.476 Q30.476 -78.929 30.476 -78.929 Q30.476 -78.929 30.476 -78.929 V-59.417 Z M77.417 -21.362 Q74.272 -21.362 72.127 -23.49 Q69.983 -25.618 69.983 -28.763 Q69.983 -31.908 72.11 -34.053 Q74.238 -36.197 77.383 -36.197 Q80.528 -36.197 82.673 -34.07 Q84.817 -31.942 84.817 -28.797 Q84.817 -25.652 82.69 -23.507 Q80.562 -21.362 77.417 -21.362 Z M51.617 -21.362 Q48.472 -21.362 46.327 -23.49 Q44.183 -25.618 44.183 -28.763 Q44.183 -31.908 46.31 -34.053 Q48.438 -36.197 51.583 -36.197 Q54.728 -36.197 56.873 -34.07 Q59.017 -31.942 59.017 -28.797 Q59.017 -25.652 56.89 -23.507 Q54.762 -21.362 51.617 -21.362 Z M103.217 -21.362 Q100.297 -21.362 98.04 -23.49 Q95.782 -25.618 95.782 -28.763 Q95.782 -31.908 98.023 -34.053 Q100.263 -36.197 103.264 -36.197 Q106.264 -36.197 108.441 -34.07 Q110.618 -31.942 110.618 -28.797 Q110.618 -25.652 108.49 -23.507 Q106.362 -21.362 103.217 -21.362 Z M77.417 4.438 Q74.272 4.438 72.127 2.197 Q69.983 -0.043 69.983 -3.044 Q69.983 -6.044 72.11 -8.221 Q74.238 -10.397 77.383 -10.397 Q80.528 -10.397 82.673 -8.27 Q84.817 -6.142 84.817 -2.997 Q84.817 -0.077 82.69 2.18 Q80.562 4.438 77.417 4.438 Z M51.617 4.438 Q48.472 4.438 46.327 2.197 Q44.183 -0.043 44.183 -3.044 Q44.183 -6.044 46.31 -8.221 Q48.438 -10.397 51.583 -10.397 Q54.728 -10.397 56.873 -8.27 Q59.017 -6.142 59.017 -2.997 Q59.017 -0.077 56.89 2.18 Q54.762 4.438 51.617 4.438 Z M103.217 4.438 Q100.297 4.438 98.04 2.197 Q95.782 -0.043 95.782 -3.044 Q95.782 -6.044 98.023 -8.221 Q100.263 -10.397 103.264 -10.397 Q106.264 -10.397 108.441 -8.27 Q110.618 -6.142 110.618 -2.997 Q110.618 -0.077 108.49 2.18 Q106.362 4.438 103.217 4.438 Z"/></g><g id="Semibold-L" transform="matrix(1 0 0 1 1970.27 1556)"><path d="M29.845 31.549 Q24.604 31.549 20.838 27.782 Q17.071 24.016 17.071 18.775 V-79.56 Q17.071 -84.839 20.838 -88.632 Q24.604 -92.425 29.845 -92.425 H39.506 V-102.1 H51.537 V-92.425 H103.263 V-102.1 H115.294 V-92.425 H124.955 Q130.234 -92.425 134.027 -88.632 Q137.82 -84.839 137.82 -79.56 V18.775 Q137.82 24.016 134.027 27.782 Q130.234 31.549 124.955 31.549 H29.845 Z M29.845 18.775 H124.955 Q124.955 18.775 124.955 18.775 Q124.955 18.775 124.955 18.775 V-49.742 H29.845 V18.775 Q29.845 18.775 29.845 18.775 Q29.845 18.775 29.845 18.775 Z M29.845 -59.417 H124.955 V-79.56 Q124.955 -79.56 124.955 -79.56 Q124.955 -79.56 124.955 -79.56 H29.845 Q29.845 -79.56 29.845 -79.56 Q29.845 -79.56 29.845 -79.56 V-59.417 Z M77.41 -21.783 Q74.44 -21.783 72.422 -23.792 Q70.403 -25.801 70.403 -28.77 Q70.403 -31.74 72.412 -33.758 Q74.421 -35.777 77.39 -35.777 Q80.36 -35.777 82.378 -33.768 Q84.397 -31.759 84.397 -28.79 Q84.397 -25.82 82.388 -23.802 Q80.379 -21.783 77.41 -21.783 Z M51.61 -21.783 Q48.64 -21.783 46.622 -23.792 Q44.603 -25.801 44.603 -28.77 Q44.603 -31.74 46.612 -33.758 Q48.621 -35.777 51.59 -35.777 Q54.56 -35.777 56.578 -33.768 Q58.597 -31.759 58.597 -28.79 Q58.597 -25.82 56.588 -23.802 Q54.579 -21.783 51.61 -21.783 Z M103.21 -21.783 Q100.368 -21.783 98.285 -23.792 Q96.203 -25.801 96.203 -28.77 Q96.203 -31.74 98.276 -33.758 Q100.348 -35.777 103.236 -35.777 Q106.123 -35.777 108.16 -33.768 Q110.197 -31.759 110.197 -28.79 Q110.197 -25.82 108.188 -23.802 Q106.179 -21.783 103.21 -21.783 Z M77.41 4.017 Q74.44 4.017 72.422 1.944 Q70.403 -0.128 70.403 -3.016 Q70.403 -5.903 72.412 -7.94 Q74.421 -9.977 77.39 -9.977 Q80.36 -9.977 82.378 -7.968 Q84.397 -5.959 84.397 -2.99 Q84.397 -0.148 82.388 1.935 Q80.379 4.017 77.41 4.017 Z M51.61 4.017 Q48.64 4.017 46.622 1.944 Q44.603 -0.128 44.603 -3.016 Q44.603 -5.903 46.612 -7.94 Q48.621 -9.977 51.59 -9.977 Q54.56 -9.977 56.578 -7.968 Q58.597 -5.959 58.597 -2.99 Q58.597 -0.148 56.588 1.935 Q54.579 4.017 51.61 4.017 Z M103.21 4.017 Q100.368 4.017 98.285 1.944 Q96.203 -0.128 96.203 -3.016 Q96.203 -5.903 98.276 -7.94 Q100.348 -9.977 103.236 -9.977 Q106.123 -9.977 108.16 -7.968 Q110.197 -5.959 110.197 -2.99 Q110.197 -0.148 108.188 1.935 Q106.179 4.017 103.21 4.017 Z"/></g><g id="Medium-L" transform="matrix(1 0 0 1 1674.31 1556)"><path d="M29.372 30.234 Q24.922 30.234 21.654 26.966 Q18.386 23.698 18.386 19.248 V-80.033 Q18.386 -84.499 21.654 -87.778 Q24.922 -91.058 29.372 -91.058 H39.506 V-100.733 H50.643 V-91.058 H104.157 V-100.733 H115.294 V-91.058 H125.428 Q129.894 -91.058 133.173 -87.778 Q136.453 -84.499 136.453 -80.033 V19.248 Q136.453 23.698 133.173 26.966 Q129.894 30.234 125.428 30.234 H29.372 Z M29.372 19.248 H125.428 Q125.428 19.248 125.428 19.248 Q125.428 19.248 125.428 19.248 V-49.742 H29.372 V19.248 Q29.372 19.248 29.372 19.248 Q29.372 19.248 29.372 19.248 Z M29.372 -59.417 H125.428 V-80.033 Q125.428 -80.033 125.428 -80.033 Q125.428 -80.033 125.428 -80.033 H29.372 Q29.372 -80.033 29.372 -80.033 Q29.372 -80.033 29.372 -80.033 V-59.417 Z M77.404 -22.099 Q74.566 -22.099 72.642 -24.018 Q70.719 -25.938 70.719 -28.776 Q70.719 -31.614 72.638 -33.538 Q74.558 -35.461 77.396 -35.461 Q80.234 -35.461 82.158 -33.542 Q84.081 -31.622 84.081 -28.784 Q84.081 -25.946 82.162 -24.022 Q80.242 -22.099 77.404 -22.099 Z M51.604 -22.099 Q48.766 -22.099 46.842 -24.018 Q44.919 -25.938 44.919 -28.776 Q44.919 -31.614 46.838 -33.538 Q48.758 -35.461 51.596 -35.461 Q54.434 -35.461 56.358 -33.542 Q58.281 -31.622 58.281 -28.784 Q58.281 -25.946 56.362 -24.022 Q54.442 -22.099 51.604 -22.099 Z M103.204 -22.099 Q100.42 -22.099 98.469 -24.018 Q96.519 -25.938 96.519 -28.776 Q96.519 -31.614 98.465 -33.538 Q100.412 -35.461 103.215 -35.461 Q106.018 -35.461 107.95 -33.542 Q109.881 -31.622 109.881 -28.784 Q109.881 -25.946 107.962 -24.022 Q106.042 -22.099 103.204 -22.099 Z M77.404 3.701 Q74.566 3.701 72.642 1.755 Q70.719 -0.192 70.719 -2.995 Q70.719 -5.798 72.638 -7.73 Q74.558 -9.661 77.396 -9.661 Q80.234 -9.661 82.158 -7.742 Q84.081 -5.822 84.081 -2.984 Q84.081 -0.2 82.162 1.751 Q80.242 3.701 77.404 3.701 Z M51.604 3.701 Q48.766 3.701 46.842 1.755 Q44.919 -0.192 44.919 -2.995 Q44.919 -5.798 46.838 -7.73 Q48.758 -9.661 51.596 -9.661 Q54.434 -9.661 56.358 -7.742 Q58.281 -5.822 58.281 -2.984 Q58.281 -0.2 56.362 1.751 Q54.442 3.701 51.604 3.701 Z M103.204 3.701 Q100.42 3.701 98.469 1.755 Q96.519 -0.192 96.519 -2.995 Q96.519 -5.798 98.465 -7.73 Q100.412 -9.661 103.215 -9.661 Q106.018 -9.661 107.95 -7.742 Q109.881 -5.822 109.881 -2.984 Q109.881 -0.2 107.962 1.751 Q106.042 3.701 103.204 3.701 Z"/></g><g id="Regular-L" transform="matrix(1 0 0 1 1378.56 1556)"><path d="M29.025 29.27 Q25.155 29.27 22.253 26.368 Q19.35 23.465 19.35 19.595 V-80.38 Q19.35 -84.25 22.253 -87.152 Q25.155 -90.055 29.025 -90.055 H39.506 V-99.73 H49.988 V-90.055 H104.812 V-99.73 H115.294 V-90.055 H125.775 Q129.645 -90.055 132.548 -87.152 Q135.45 -84.25 135.45 -80.38 V19.595 Q135.45 23.465 132.548 26.368 Q129.645 29.27 125.775 29.27 H29.025 Z M29.025 19.595 H125.775 Q125.775 19.595 125.775 19.595 Q125.775 19.595 125.775 19.595 V-49.742 H29.025 V19.595 Q29.025 19.595 29.025 19.595 Q29.025 19.595 29.025 19.595 Z M29.025 -59.417 H125.775 V-80.38 Q125.775 -80.38 125.775 -80.38 Q125.775 -80.38 125.775 -80.38 H29.025 Q29.025 -80.38 29.025 -80.38 Q29.025 -80.38 29.025 -80.38 V-59.417 Z M77.4 -22.33 Q74.659 -22.33 72.804 -24.184 Q70.95 -26.039 70.95 -28.78 Q70.95 -31.521 72.804 -33.376 Q74.659 -35.23 77.4 -35.23 Q80.141 -35.23 81.996 -33.376 Q83.85 -31.521 83.85 -28.78 Q83.85 -26.039 81.996 -24.184 Q80.141 -22.33 77.4 -22.33 Z M51.6 -22.33 Q48.859 -22.33 47.004 -24.184 Q45.15 -26.039 45.15 -28.78 Q45.15 -31.521 47.004 -33.376 Q48.859 -35.23 51.6 -35.23 Q54.341 -35.23 56.196 -33.376 Q58.05 -31.521 58.05 -28.78 Q58.05 -26.039 56.196 -24.184 Q54.341 -22.33 51.6 -22.33 Z M103.2 -22.33 Q100.459 -22.33 98.604 -24.184 Q96.75 -26.039 96.75 -28.78 Q96.75 -31.521 98.604 -33.376 Q100.459 -35.23 103.2 -35.23 Q105.941 -35.23 107.796 -33.376 Q109.65 -31.521 109.65 -28.78 Q109.65 -26.039 107.796 -24.184 Q105.941 -22.33 103.2 -22.33 Z M77.4 3.47 Q74.659 3.47 72.804 1.616 Q70.95 -0.239 70.95 -2.98 Q70.95 -5.721 72.804 -7.576 Q74.659 -9.43 77.4 -9.43 Q80.141 -9.43 81.996 -7.576 Q83.85 -5.721 83.85 -2.98 Q83.85 -0.239 81.996 1.616 Q80.141 3.47 77.4 3.47 Z M51.6 3.47 Q48.859 3.47 47.004 1.616 Q45.15 -0.239 45.15 -2.98 Q45.15 -5.721 47.004 -7.576 Q48.859 -9.43 51.6 -9.43 Q54.341 -9.43 56.196 -7.576 Q58.05 -5.721 58.05 -2.98 Q58.05 -0.239 56.196 1.616 Q54.341 3.47 51.6 3.47 Z M103.2 3.47 Q100.459 3.47 98.604 1.616 Q96.75 -0.239 96.75 -2.98 Q96.75 -5.721 98.604 -7.576 Q100.459 -9.43 103.2 -9.43 Q105.941 -9.43 107.796 -7.576 Q109.65 -5.721 109.65 -2.98 Q109.65 -0.239 107.796 1.616 Q105.941 3.47 103.2 3.47 Z"/></g><g id="Light-L" transform="matrix(1 0 0 1 1082.77 1556)"><path d="M31.878 26.045 Q28.084 26.045 25.33 23.29 Q22.575 20.536 22.575 16.742 V-76.659 Q22.575 -80.453 25.33 -83.207 Q28.084 -85.962 31.878 -85.962 H43.786 V-97.249 H51.91 V-85.962 H103.138 V-97.249 H111.076 V-85.962 H122.922 Q126.716 -85.962 129.47 -83.207 Q132.225 -80.453 132.225 -76.659 V16.742 Q132.225 20.536 129.47 23.29 Q126.716 26.045 122.922 26.045 H31.878 Z M31.878 18.727 H122.922 Q123.666 18.727 124.287 18.107 Q124.907 17.486 124.907 16.742 V-47.324 H29.893 V16.742 Q29.893 17.486 30.513 18.107 Q31.134 18.727 31.878 18.727 Z M29.893 -54.642 H124.907 V-76.659 Q124.907 -77.403 124.287 -78.023 Q123.666 -78.643 122.922 -78.643 H31.878 Q31.134 -78.643 30.513 -78.023 Q29.893 -77.403 29.893 -76.659 V-54.642 Z M77.4 -21.834 Q75.031 -21.834 73.363 -23.502 Q71.694 -25.17 71.694 -27.54 Q71.694 -29.909 73.363 -31.577 Q75.031 -33.245 77.4 -33.245 Q79.769 -33.245 81.437 -31.577 Q83.106 -29.909 83.106 -27.54 Q83.106 -25.17 81.437 -23.502 Q79.769 -21.834 77.4 -21.834 Z M51.6 -21.834 Q49.231 -21.834 47.563 -23.502 Q45.894 -25.17 45.894 -27.54 Q45.894 -29.909 47.563 -31.577 Q49.231 -33.245 51.6 -33.245 Q53.969 -33.245 55.637 -31.577 Q57.306 -29.909 57.306 -27.54 Q57.306 -25.17 55.637 -23.502 Q53.969 -21.834 51.6 -21.834 Z M103.2 -21.834 Q100.831 -21.834 99.163 -23.502 Q97.494 -25.17 97.494 -27.54 Q97.494 -29.909 99.163 -31.577 Q100.831 -33.245 103.2 -33.245 Q105.569 -33.245 107.237 -31.577 Q108.906 -29.909 108.906 -27.54 Q108.906 -25.17 107.237 -23.502 Q105.569 -21.834 103.2 -21.834 Z M77.4 3.47 Q75.031 3.47 73.363 1.802 Q71.694 0.133 71.694 -2.236 Q71.694 -4.605 73.363 -6.273 Q75.031 -7.942 77.4 -7.942 Q79.769 -7.942 81.437 -6.273 Q83.106 -4.605 83.106 -2.236 Q83.106 0.133 81.437 1.802 Q79.769 3.47 77.4 3.47 Z M51.6 3.47 Q49.231 3.47 47.563 1.802 Q45.894 0.133 45.894 -2.236 Q45.894 -4.605 47.563 -6.273 Q49.231 -7.942 51.6 -7.942 Q53.969 -7.942 55.637 -6.273 Q57.306 -4.605 57.306 -2.236 Q57.306 0.133 55.637 1.802 Q53.969 3.47 51.6 3.47 Z M103.2 3.47 Q100.831 3.47 99.163 1.802 Q97.494 0.133 97.494 -2.236 Q97.494 -4.605 99.163 -6.273 Q100.831 -7.942 103.2 -7.942 Q105.569 -7.942 107.237 -6.273 Q108.906 -4.605 108.906 -2.236 Q108.906 0.133 107.237 1.802 Q105.569 3.47 103.2 3.47 Z"/></g><g id="Thin-L" transform="matrix(1 0 0 1 787.282 1556)"><path d="M34.731 22.82 Q31.013 22.82 28.406 20.214 Q25.8 17.607 25.8 13.889 V-72.938 Q25.8 -76.656 28.406 -79.262 Q31.013 -81.868 34.731 -81.868 H48.065 V-94.768 H53.833 V-81.868 H101.463 V-94.768 H106.859 V-81.868 H120.069 Q123.787 -81.868 126.394 -79.262 Q129 -76.656 129 -72.938 V13.889 Q129 17.607 126.394 20.214 Q123.787 22.82 120.069 22.82 H34.731 Z M34.731 17.858 H120.069 Q121.558 17.858 122.798 16.618 Q124.038 15.378 124.038 13.889 V-44.905 H30.762 V13.889 Q30.762 15.378 32.002 16.618 Q33.242 17.858 34.731 17.858 Z M30.762 -49.867 H124.038 V-72.938 Q124.038 -74.426 122.798 -75.667 Q121.558 -76.907 120.069 -76.907 H34.731 Q33.242 -76.907 32.002 -75.667 Q30.762 -74.426 30.762 -72.938 V-49.867 Z M77.4 -21.338 Q75.403 -21.338 73.921 -22.82 Q72.438 -24.302 72.438 -26.299 Q72.438 -28.296 73.921 -29.778 Q75.403 -31.261 77.4 -31.261 Q79.397 -31.261 80.879 -29.778 Q82.362 -28.296 82.362 -26.299 Q82.362 -24.302 80.879 -22.82 Q79.397 -21.338 77.4 -21.338 Z M51.6 -21.338 Q49.603 -21.338 48.121 -22.82 Q46.638 -24.302 46.638 -26.299 Q46.638 -28.296 48.121 -29.778 Q49.603 -31.261 51.6 -31.261 Q53.597 -31.261 55.079 -29.778 Q56.562 -28.296 56.562 -26.299 Q56.562 -24.302 55.079 -22.82 Q53.597 -21.338 51.6 -21.338 Z M103.2 -21.338 Q101.203 -21.338 99.721 -22.82 Q98.238 -24.302 98.238 -26.299 Q98.238 -28.296 99.721 -29.778 Q101.203 -31.261 103.2 -31.261 Q105.197 -31.261 106.679 -29.778 Q108.162 -28.296 108.162 -26.299 Q108.162 -24.302 106.679 -22.82 Q105.197 -21.338 103.2 -21.338 Z M77.4 3.47 Q75.403 3.47 73.921 1.988 Q72.438 0.505 72.438 -1.492 Q72.438 -3.489 73.921 -4.971 Q75.403 -6.453 77.4 -6.453 Q79.397 -6.453 80.879 -4.971 Q82.362 -3.489 82.362 -1.492 Q82.362 0.505 80.879 1.988 Q79.397 3.47 77.4 3.47 Z M51.6 3.47 Q49.603 3.47 48.121 1.988 Q46.638 0.505 46.638 -1.492 Q46.638 -3.489 48.121 -4.971 Q49.603 -6.453 51.6 -6.453 Q53.597 -6.453 55.079 -4.971 Q56.562 -3.489 56.562 -1.492 Q56.562 0.505 55.079 1.988 Q53.597 3.47 51.6 3.47 Z M103.2 3.47 Q101.203 3.47 99.721 1.988 Q98.238 0.505 98.238 -1.492 Q98.238 -3.489 99.721 -4.971 Q101.203 -6.453 103.2 -6.453 Q105.197 -6.453 106.679 -4.971 Q108.162 -3.489 108.162 -1.492 Q108.162 0.505 106.679 1.988 Q105.197 3.47 103.2 3.47 Z"/></g><g id="Ultralight-L" transform="matrix(1 0 0 1 491.205 1556)"><path d="M36.443 20.885 Q32.77 20.885 30.253 18.367 Q27.735 15.85 27.735 12.178 V-70.705 Q27.735 -74.377 30.253 -76.895 Q32.77 -79.412 36.443 -79.412 H50.633 V-93.28 H54.986 V-79.412 H100.459 V-93.28 H104.329 V-79.412 H118.358 Q122.03 -79.412 124.548 -76.895 Q127.065 -74.377 127.065 -70.705 V12.178 Q127.065 15.85 124.548 18.367 Q122.03 20.885 118.358 20.885 H36.443 Z M36.443 17.338 H118.358 Q120.293 17.338 121.905 15.725 Q123.517 14.113 123.517 12.178 V-43.454 H31.283 V12.178 Q31.283 14.113 32.895 15.725 Q34.508 17.338 36.443 17.338 Z M31.283 -47.001 H123.517 V-70.705 Q123.517 -72.64 121.905 -74.252 Q120.293 -75.865 118.358 -75.865 H36.443 Q34.508 -75.865 32.895 -74.252 Q31.283 -72.64 31.283 -70.705 V-47.001 Z M77.4 -21.04 Q75.626 -21.04 74.256 -22.411 Q72.885 -23.781 72.885 -25.555 Q72.885 -27.329 74.256 -28.699 Q75.626 -30.07 77.4 -30.07 Q79.174 -30.07 80.544 -28.699 Q81.915 -27.329 81.915 -25.555 Q81.915 -23.781 80.544 -22.411 Q79.174 -21.04 77.4 -21.04 Z M51.6 -21.04 Q49.826 -21.04 48.456 -22.411 Q47.085 -23.781 47.085 -25.555 Q47.085 -27.329 48.456 -28.699 Q49.826 -30.07 51.6 -30.07 Q53.374 -30.07 54.744 -28.699 Q56.115 -27.329 56.115 -25.555 Q56.115 -23.781 54.744 -22.411 Q53.374 -21.04 51.6 -21.04 Z M103.2 -21.04 Q101.426 -21.04 100.056 -22.411 Q98.685 -23.781 98.685 -25.555 Q98.685 -27.329 100.056 -28.699 Q101.426 -30.07 103.2 -30.07 Q104.974 -30.07 106.344 -28.699 Q107.715 -27.329 107.715 -25.555 Q107.715 -23.781 106.344 -22.411 Q104.974 -21.04 103.2 -21.04 Z M77.4 3.47 Q75.626 3.47 74.256 2.099 Q72.885 0.729 72.885 -1.045 Q72.885 -2.819 74.256 -4.189 Q75.626 -5.56 77.4 -5.56 Q79.174 -5.56 80.544 -4.189 Q81.915 -2.819 81.915 -1.045 Q81.915 0.729 80.544 2.099 Q79.174 3.47 77.4 3.47 Z M51.6 3.47 Q49.826 3.47 48.456 2.099 Q47.085 0.729 47.085 -1.045 Q47.085 -2.819 48.456 -4.189 Q49.826 -5.56 51.6 -5.56 Q53.374 -5.56 54.744 -4.189 Q56.115 -2.819 56.115 -1.045 Q56.115 0.729 54.744 2.099 Q53.374 3.47 51.6 3.47 Z M103.2 3.47 Q101.426 3.47 100.056 2.099 Q98.685 0.729 98.685 -1.045 Q98.685 -2.819 100.056 -4.189 Q101.426 -5.56 103.2 -5.56 Q104.974 -5.56 106.344 -4.189 Q107.715 -2.819 107.715 -1.045 Q107.715 0.729 106.344 2.099 Q104.974 3.47 103.2 3.47 Z"/></g><g id="Bold-M" transform="matrix(1 0 0 1 2281.8 1126)"><path d="M26.5 19.02 Q19.875 19.02 15.312 14.458 Q10.75 9.895 10.75 3.27 V-63.73 Q10.75 -70.355 15.312 -74.917 Q19.875 -79.48 26.5 -79.48 H30 V-89.48 H42.875 V-79.48 H77.125 V-89.48 H90 V-79.48 H93.5 Q100.125 -79.48 104.688 -74.917 Q109.25 -70.355 109.25 -63.73 V3.27 Q109.25 9.895 104.688 14.458 Q100.125 19.02 93.5 19.02 H26.5 Z M26.5 3.27 H93.5 Q93.5 3.27 93.5 3.27 Q93.5 3.27 93.5 3.27 V-45.23 H26.5 V3.27 Q26.5 3.27 26.5 3.27 Q26.5 3.27 26.5 3.27 Z M26.5 -55.23 H93.5 V-63.73 Q93.5 -63.73 93.5 -63.73 Q93.5 -63.73 93.5 -63.73 H26.5 Q26.5 -63.73 26.5 -63.73 Q26.5 -63.73 26.5 -63.73 V-55.23 Z M60 -24.23 Q57.45 -24.23 55.725 -25.955 Q54 -27.68 54 -30.23 Q54 -32.78 55.725 -34.505 Q57.45 -36.23 60 -36.23 Q62.55 -36.23 64.275 -34.505 Q66 -32.78 66 -30.23 Q66 -27.68 64.275 -25.955 Q62.55 -24.23 60 -24.23 Z M40 -24.23 Q37.45 -24.23 35.725 -25.955 Q34 -27.68 34 -30.23 Q34 -32.78 35.725 -34.505 Q37.45 -36.23 40 -36.23 Q42.55 -36.23 44.275 -34.505 Q46 -32.78 46 -30.23 Q46 -27.68 44.275 -25.955 Q42.55 -24.23 40 -24.23 Z M80 -24.23 Q77.625 -24.23 75.812 -25.955 Q74 -27.68 74 -30.23 Q74 -32.78 75.812 -34.505 Q77.625 -36.23 80.062 -36.23 Q82.5 -36.23 84.25 -34.505 Q86 -32.78 86 -30.23 Q86 -27.68 84.275 -25.955 Q82.55 -24.23 80 -24.23 Z M60 -4.23 Q57.45 -4.23 55.725 -6.042 Q54 -7.855 54 -10.292 Q54 -12.73 55.725 -14.48 Q57.45 -16.23 60 -16.23 Q62.55 -16.23 64.275 -14.505 Q66 -12.78 66 -10.23 Q66 -7.855 64.275 -6.042 Q62.55 -4.23 60 -4.23 Z M40 -4.23 Q37.45 -4.23 35.725 -6.042 Q34 -7.855 34 -10.292 Q34 -12.73 35.725 -14.48 Q37.45 -16.23 40 -16.23 Q42.55 -16.23 44.275 -14.505 Q46 -12.78 46 -10.23 Q46 -7.855 44.275 -6.042 Q42.55 -4.23 40 -4.23 Z M80 -4.23 Q77.625 -4.23 75.812 -6.042 Q74 -7.855 74 -10.292 Q74 -12.73 75.812 -14.48 Q77.625 -16.23 80.062 -16.23 Q82.5 -16.23 84.25 -14.505 Q86 -12.78 86 -10.23 Q86 -7.855 84.275 -6.042 Q82.55 -4.23 80 -4.23 Z"/></g><g id="Semibold-M" transform="matrix(1 0 0 1 1985.97 1126)"><path d="M25.848 17.172 Q20.31 17.172 16.454 13.316 Q12.598 9.46 12.598 3.922 V-64.382 Q12.598 -69.92 16.454 -73.776 Q20.31 -77.632 25.848 -77.632 H30 V-87.632 H41.625 V-77.632 H78.375 V-87.632 H90 V-77.632 H94.152 Q99.69 -77.632 103.546 -73.776 Q107.402 -69.92 107.402 -64.382 V3.922 Q107.402 9.46 103.546 13.316 Q99.69 17.172 94.152 17.172 H25.848 Z M25.848 3.922 H94.152 Q94.152 3.922 94.152 3.922 Q94.152 3.922 94.152 3.922 V-45.23 H25.848 V3.922 Q25.848 3.922 25.848 3.922 Q25.848 3.922 25.848 3.922 Z M25.848 -55.23 H94.152 V-64.382 Q94.152 -64.382 94.152 -64.382 Q94.152 -64.382 94.152 -64.382 H25.848 Q25.848 -64.382 25.848 -64.382 Q25.848 -64.382 25.848 -64.382 V-55.23 Z M60 -24.665 Q57.635 -24.665 56.035 -26.265 Q54.435 -27.865 54.435 -30.23 Q54.435 -32.595 56.035 -34.195 Q57.635 -35.795 60 -35.795 Q62.365 -35.795 63.965 -34.195 Q65.565 -32.595 65.565 -30.23 Q65.565 -27.865 63.965 -26.265 Q62.365 -24.665 60 -24.665 Z M40 -24.665 Q37.635 -24.665 36.035 -26.265 Q34.435 -27.865 34.435 -30.23 Q34.435 -32.595 36.035 -34.195 Q37.635 -35.795 40 -35.795 Q42.365 -35.795 43.965 -34.195 Q45.565 -32.595 45.565 -30.23 Q45.565 -27.865 43.965 -26.265 Q42.365 -24.665 40 -24.665 Z M80 -24.665 Q77.734 -24.665 76.084 -26.265 Q74.435 -27.865 74.435 -30.23 Q74.435 -32.595 76.084 -34.195 Q77.734 -35.795 80.035 -35.795 Q82.337 -35.795 83.951 -34.195 Q85.565 -32.595 85.565 -30.23 Q85.565 -27.865 83.965 -26.265 Q82.365 -24.665 80 -24.665 Z M60 -4.665 Q57.635 -4.665 56.035 -6.314 Q54.435 -7.964 54.435 -10.265 Q54.435 -12.567 56.035 -14.181 Q57.635 -15.795 60 -15.795 Q62.365 -15.795 63.965 -14.195 Q65.565 -12.595 65.565 -10.23 Q65.565 -7.964 63.965 -6.314 Q62.365 -4.665 60 -4.665 Z M40 -4.665 Q37.635 -4.665 36.035 -6.314 Q34.435 -7.964 34.435 -10.265 Q34.435 -12.567 36.035 -14.181 Q37.635 -15.795 40 -15.795 Q42.365 -15.795 43.965 -14.195 Q45.565 -12.595 45.565 -10.23 Q45.565 -7.964 43.965 -6.314 Q42.365 -4.665 40 -4.665 Z M80 -4.665 Q77.734 -4.665 76.084 -6.314 Q74.435 -7.964 74.435 -10.265 Q74.435 -12.567 76.084 -14.181 Q77.734 -15.795 80.035 -15.795 Q82.337 -15.795 83.951 -14.195 Q85.565 -12.595 85.565 -10.23 Q85.565 -7.964 83.965 -6.314 Q82.365 -4.665 80 -4.665 Z"/></g><g id="Medium-M" transform="matrix(1 0 0 1 1689.91 1126)"><path d="M25.359 15.786 Q20.636 15.786 17.31 12.46 Q13.984 9.134 13.984 4.411 V-64.871 Q13.984 -69.594 17.31 -72.92 Q20.636 -76.246 25.359 -76.246 H30 V-86.246 H40.688 V-76.246 H79.312 V-86.246 H90 V-76.246 H94.641 Q99.364 -76.246 102.69 -72.92 Q106.016 -69.594 106.016 -64.871 V4.411 Q106.016 9.134 102.69 12.46 Q99.364 15.786 94.641 15.786 H25.359 Z M25.359 4.411 H94.641 Q94.641 4.411 94.641 4.411 Q94.641 4.411 94.641 4.411 V-45.23 H25.359 V4.411 Q25.359 4.411 25.359 4.411 Q25.359 4.411 25.359 4.411 Z M25.359 -55.23 H94.641 V-64.871 Q94.641 -64.871 94.641 -64.871 Q94.641 -64.871 94.641 -64.871 H25.359 Q25.359 -64.871 25.359 -64.871 Q25.359 -64.871 25.359 -64.871 V-55.23 Z M60 -24.991 Q57.773 -24.991 56.267 -26.497 Q54.761 -28.003 54.761 -30.23 Q54.761 -32.457 56.267 -33.963 Q57.773 -35.469 60 -35.469 Q62.227 -35.469 63.733 -33.963 Q65.239 -32.457 65.239 -30.23 Q65.239 -28.003 63.733 -26.497 Q62.227 -24.991 60 -24.991 Z M40 -24.991 Q37.773 -24.991 36.267 -26.497 Q34.761 -28.003 34.761 -30.23 Q34.761 -32.457 36.267 -33.963 Q37.773 -35.469 40 -35.469 Q42.227 -35.469 43.733 -33.963 Q45.239 -32.457 45.239 -30.23 Q45.239 -28.003 43.733 -26.497 Q42.227 -24.991 40 -24.991 Z M80 -24.991 Q77.815 -24.991 76.288 -26.497 Q74.761 -28.003 74.761 -30.23 Q74.761 -32.457 76.288 -33.963 Q77.815 -35.469 80.015 -35.469 Q82.215 -35.469 83.727 -33.963 Q85.239 -32.457 85.239 -30.23 Q85.239 -28.003 83.733 -26.497 Q82.227 -24.991 80 -24.991 Z M60 -4.991 Q57.773 -4.991 56.267 -6.518 Q54.761 -8.045 54.761 -10.245 Q54.761 -12.445 56.267 -13.957 Q57.773 -15.469 60 -15.469 Q62.227 -15.469 63.733 -13.963 Q65.239 -12.457 65.239 -10.23 Q65.239 -8.045 63.733 -6.518 Q62.227 -4.991 60 -4.991 Z M40 -4.991 Q37.773 -4.991 36.267 -6.518 Q34.761 -8.045 34.761 -10.245 Q34.761 -12.445 36.267 -13.957 Q37.773 -15.469 40 -15.469 Q42.227 -15.469 43.733 -13.963 Q45.239 -12.457 45.239 -10.23 Q45.239 -8.045 43.733 -6.518 Q42.227 -4.991 40 -4.991 Z M80 -4.991 Q77.815 -4.991 76.288 -6.518 Q74.761 -8.045 74.761 -10.245 Q74.761 -12.445 76.288 -13.957 Q77.815 -15.469 80.015 -15.469 Q82.215 -15.469 83.727 -13.963 Q85.239 -12.457 85.239 -10.23 Q85.239 -8.045 83.733 -6.518 Q82.227 -4.991 80 -4.991 Z"/></g><g id="Regular-M" transform="matrix(1 0 0 1 1394.06 1126)"><path d="M25 14.77 Q20.875 14.77 17.938 11.833 Q15 8.895 15 4.77 V-65.23 Q15 -69.355 17.938 -72.292 Q20.875 -75.23 25 -75.23 H30 V-85.23 H40 V-75.23 H80 V-85.23 H90 V-75.23 H95 Q99.125 -75.23 102.062 -72.292 Q105 -69.355 105 -65.23 V4.77 Q105 8.895 102.062 11.833 Q99.125 14.77 95 14.77 H25 Z M25 4.77 H95 Q95 4.77 95 4.77 Q95 4.77 95 4.77 V-45.23 H25 V4.77 Q25 4.77 25 4.77 Q25 4.77 25 4.77 Z M25 -55.23 H95 V-65.23 Q95 -65.23 95 -65.23 Q95 -65.23 95 -65.23 H25 Q25 -65.23 25 -65.23 Q25 -65.23 25 -65.23 V-55.23 Z M60 -25.23 Q57.875 -25.23 56.438 -26.667 Q55 -28.105 55 -30.23 Q55 -32.355 56.438 -33.792 Q57.875 -35.23 60 -35.23 Q62.125 -35.23 63.562 -33.792 Q65 -32.355 65 -30.23 Q65 -28.105 63.562 -26.667 Q62.125 -25.23 60 -25.23 Z M40 -25.23 Q37.875 -25.23 36.438 -26.667 Q35 -28.105 35 -30.23 Q35 -32.355 36.438 -33.792 Q37.875 -35.23 40 -35.23 Q42.125 -35.23 43.562 -33.792 Q45 -32.355 45 -30.23 Q45 -28.105 43.562 -26.667 Q42.125 -25.23 40 -25.23 Z M80 -25.23 Q77.875 -25.23 76.438 -26.667 Q75 -28.105 75 -30.23 Q75 -32.355 76.438 -33.792 Q77.875 -35.23 80 -35.23 Q82.125 -35.23 83.562 -33.792 Q85 -32.355 85 -30.23 Q85 -28.105 83.562 -26.667 Q82.125 -25.23 80 -25.23 Z M60 -5.23 Q57.875 -5.23 56.438 -6.667 Q55 -8.105 55 -10.23 Q55 -12.355 56.438 -13.792 Q57.875 -15.23 60 -15.23 Q62.125 -15.23 63.562 -13.792 Q65 -12.355 65 -10.23 Q65 -8.105 63.562 -6.667 Q62.125 -5.23 60 -5.23 Z M40 -5.23 Q37.875 -5.23 36.438 -6.667 Q35 -8.105 35 -10.23 Q35 -12.355 36.438 -13.792 Q37.875 -15.23 40 -15.23 Q42.125 -15.23 43.562 -13.792 Q45 -12.355 45 -10.23 Q45 -8.105 43.562 -6.667 Q42.125 -5.23 40 -5.23 Z M80 -5.23 Q77.875 -5.23 76.438 -6.667 Q75 -8.105 75 -10.23 Q75 -12.355 76.438 -13.792 Q77.875 -15.23 80 -15.23 Q82.125 -15.23 83.562 -13.792 Q85 -12.355 85 -10.23 Q85 -8.105 83.562 -6.667 Q82.125 -5.23 80 -5.23 Z"/></g><g id="Light-M" transform="matrix(1 0 0 1 1098.18 1126)"><path d="M26.539 12.27 Q22.75 12.27 20.125 9.645 Q17.5 7.02 17.5 3.231 V-63.691 Q17.5 -67.48 20.125 -70.105 Q22.75 -72.73 26.539 -72.73 H33.462 V-83.307 H41.154 V-72.73 H79.038 V-83.307 H86.538 V-72.73 H93.461 Q97.25 -72.73 99.875 -70.105 Q102.5 -67.48 102.5 -63.691 V3.231 Q102.5 7.02 99.875 9.645 Q97.25 12.27 93.461 12.27 H26.539 Z M26.539 4.77 H93.461 Q94.038 4.77 94.519 4.289 Q95 3.808 95 3.231 V-43.691 H25 V3.231 Q25 3.808 25.481 4.289 Q25.962 4.77 26.539 4.77 Z M25 -51.191 H95 V-63.691 Q95 -64.268 94.519 -64.749 Q94.038 -65.23 93.461 -65.23 H26.539 Q25.962 -65.23 25.481 -64.749 Q25 -64.268 25 -63.691 V-51.191 Z M60 -24.845 Q58.163 -24.845 56.87 -26.139 Q55.577 -27.432 55.577 -29.268 Q55.577 -31.105 56.87 -32.398 Q58.163 -33.691 60 -33.691 Q61.837 -33.691 63.13 -32.398 Q64.423 -31.105 64.423 -29.268 Q64.423 -27.432 63.13 -26.139 Q61.837 -24.845 60 -24.845 Z M40 -24.845 Q38.163 -24.845 36.87 -26.139 Q35.577 -27.432 35.577 -29.268 Q35.577 -31.105 36.87 -32.398 Q38.163 -33.691 40 -33.691 Q41.837 -33.691 43.13 -32.398 Q44.423 -31.105 44.423 -29.268 Q44.423 -27.432 43.13 -26.139 Q41.837 -24.845 40 -24.845 Z M80 -24.845 Q78.163 -24.845 76.87 -26.139 Q75.577 -27.432 75.577 -29.268 Q75.577 -31.105 76.87 -32.398 Q78.163 -33.691 80 -33.691 Q81.837 -33.691 83.13 -32.398 Q84.423 -31.105 84.423 -29.268 Q84.423 -27.432 83.13 -26.139 Q81.837 -24.845 80 -24.845 Z M60 -5.23 Q58.163 -5.23 56.87 -6.523 Q55.577 -7.816 55.577 -9.653 Q55.577 -11.489 56.87 -12.783 Q58.163 -14.076 60 -14.076 Q61.837 -14.076 63.13 -12.783 Q64.423 -11.489 64.423 -9.653 Q64.423 -7.816 63.13 -6.523 Q61.837 -5.23 60 -5.23 Z M40 -5.23 Q38.163 -5.23 36.87 -6.523 Q35.577 -7.816 35.577 -9.653 Q35.577 -11.489 36.87 -12.783 Q38.163 -14.076 40 -14.076 Q41.837 -14.076 43.13 -12.783 Q44.423 -11.489 44.423 -9.653 Q44.423 -7.816 43.13 -6.523 Q41.837 -5.23 40 -5.23 Z M80 -5.23 Q78.163 -5.23 76.87 -6.523 Q75.577 -7.816 75.577 -9.653 Q75.577 -11.489 76.87 -12.783 Q78.163 -14.076 80 -14.076 Q81.837 -14.076 83.13 -12.783 Q84.423 -11.489 84.423 -9.653 Q84.423 -7.816 83.13 -6.523 Q81.837 -5.23 80 -5.23 Z"/></g><g id="Thin-M" transform="matrix(1 0 0 1 802.565 1126)"><path d="M28.077 9.77 Q24.625 9.77 22.312 7.458 Q20 5.145 20 1.693 V-62.153 Q20 -65.605 22.312 -67.917 Q24.625 -70.23 28.077 -70.23 H36.923 V-81.384 H42.308 V-70.23 H78.077 V-81.384 H83.077 V-70.23 H91.923 Q95.375 -70.23 97.688 -67.917 Q100 -65.605 100 -62.153 V1.693 Q100 5.145 97.688 7.458 Q95.375 9.77 91.923 9.77 H28.077 Z M28.077 4.77 H91.923 Q93.077 4.77 94.038 3.809 Q95 2.847 95 1.693 V-42.153 H25 V1.693 Q25 2.847 25.962 3.809 Q26.923 4.77 28.077 4.77 Z M25 -47.153 H95 V-62.153 Q95 -63.307 94.038 -64.268 Q93.077 -65.23 91.923 -65.23 H28.077 Q26.923 -65.23 25.962 -64.268 Q25 -63.307 25 -62.153 V-47.153 Z M60 -24.461 Q58.452 -24.461 57.303 -25.61 Q56.154 -26.759 56.154 -28.307 Q56.154 -29.855 57.303 -31.004 Q58.452 -32.153 60 -32.153 Q61.548 -32.153 62.697 -31.004 Q63.846 -29.855 63.846 -28.307 Q63.846 -26.759 62.697 -25.61 Q61.548 -24.461 60 -24.461 Z M40 -24.461 Q38.452 -24.461 37.303 -25.61 Q36.154 -26.759 36.154 -28.307 Q36.154 -29.855 37.303 -31.004 Q38.452 -32.153 40 -32.153 Q41.548 -32.153 42.697 -31.004 Q43.846 -29.855 43.846 -28.307 Q43.846 -26.759 42.697 -25.61 Q41.548 -24.461 40 -24.461 Z M80 -24.461 Q78.452 -24.461 77.303 -25.61 Q76.154 -26.759 76.154 -28.307 Q76.154 -29.855 77.303 -31.004 Q78.452 -32.153 80 -32.153 Q81.548 -32.153 82.697 -31.004 Q83.846 -29.855 83.846 -28.307 Q83.846 -26.759 82.697 -25.61 Q81.548 -24.461 80 -24.461 Z M60 -5.23 Q58.452 -5.23 57.303 -6.379 Q56.154 -7.528 56.154 -9.076 Q56.154 -10.624 57.303 -11.773 Q58.452 -12.922 60 -12.922 Q61.548 -12.922 62.697 -11.773 Q63.846 -10.624 63.846 -9.076 Q63.846 -7.528 62.697 -6.379 Q61.548 -5.23 60 -5.23 Z M40 -5.23 Q38.452 -5.23 37.303 -6.379 Q36.154 -7.528 36.154 -9.076 Q36.154 -10.624 37.303 -11.773 Q38.452 -12.922 40 -12.922 Q41.548 -12.922 42.697 -11.773 Q43.846 -10.624 43.846 -9.076 Q43.846 -7.528 42.697 -6.379 Q41.548 -5.23 40 -5.23 Z M80 -5.23 Q78.452 -5.23 77.303 -6.379 Q76.154 -7.528 76.154 -9.076 Q76.154 -10.624 77.303 -11.773 Q78.452 -12.922 80 -12.922 Q81.548 -12.922 82.697 -11.773 Q83.846 -10.624 83.846 -9.076 Q83.846 -7.528 82.697 -6.379 Q81.548 -5.23 80 -5.23 Z"/></g><g id="Ultralight-M" transform="matrix(1 0 0 1 506.415 1126)"><path d="M29 8.27 Q25.75 8.27 23.625 6.145 Q21.5 4.02 21.5 0.77 V-61.23 Q21.5 -64.48 23.625 -66.605 Q25.75 -68.73 29 -68.73 H39 V-80.23 H43 V-68.73 H77.5 V-80.23 H81 V-68.73 H91 Q94.25 -68.73 96.375 -66.605 Q98.5 -64.48 98.5 -61.23 V0.77 Q98.5 4.02 96.375 6.145 Q94.25 8.27 91 8.27 H29 Z M29 4.77 H91 Q92.5 4.77 93.75 3.52 Q95 2.27 95 0.77 V-41.23 H25 V0.77 Q25 2.27 26.25 3.52 Q27.5 4.77 29 4.77 Z M25 -44.73 H95 V-61.23 Q95 -62.73 93.75 -63.98 Q92.5 -65.23 91 -65.23 H29 Q27.5 -65.23 26.25 -63.98 Q25 -62.73 25 -61.23 V-44.73 Z M60 -24.23 Q58.625 -24.23 57.562 -25.292 Q56.5 -26.355 56.5 -27.73 Q56.5 -29.105 57.562 -30.167 Q58.625 -31.23 60 -31.23 Q61.375 -31.23 62.438 -30.167 Q63.5 -29.105 63.5 -27.73 Q63.5 -26.355 62.438 -25.292 Q61.375 -24.23 60 -24.23 Z M40 -24.23 Q38.625 -24.23 37.562 -25.292 Q36.5 -26.355 36.5 -27.73 Q36.5 -29.105 37.562 -30.167 Q38.625 -31.23 40 -31.23 Q41.375 -31.23 42.438 -30.167 Q43.5 -29.105 43.5 -27.73 Q43.5 -26.355 42.438 -25.292 Q41.375 -24.23 40 -24.23 Z M80 -24.23 Q78.625 -24.23 77.562 -25.292 Q76.5 -26.355 76.5 -27.73 Q76.5 -29.105 77.562 -30.167 Q78.625 -31.23 80 -31.23 Q81.375 -31.23 82.438 -30.167 Q83.5 -29.105 83.5 -27.73 Q83.5 -26.355 82.438 -25.292 Q81.375 -24.23 80 -24.23 Z M60 -5.23 Q58.625 -5.23 57.562 -6.292 Q56.5 -7.355 56.5 -8.73 Q56.5 -10.105 57.562 -11.167 Q58.625 -12.23 60 -12.23 Q61.375 -12.23 62.438 -11.167 Q63.5 -10.105 63.5 -8.73 Q63.5 -7.355 62.438 -6.292 Q61.375 -5.23 60 -5.23 Z M40 -5.23 Q38.625 -5.23 37.562 -6.292 Q36.5 -7.355 36.5 -8.73 Q36.5 -10.105 37.562 -11.167 Q38.625 -12.23 40 -12.23 Q41.375 -12.23 42.438 -11.167 Q43.5 -10.105 43.5 -8.73 Q43.5 -7.355 42.438 -6.292 Q41.375 -5.23 40 -5.23 Z M80 -5.23 Q78.625 -5.23 77.562 -6.292 Q76.5 -7.355 76.5 -8.73 Q76.5 -10.105 77.562 -11.167 Q78.625 -12.23 80 -12.23 Q81.375 -12.23 82.438 -11.167 Q83.5 -10.105 83.5 -8.73 Q83.5 -7.355 82.438 -6.292 Q81.375 -5.23 80 -5.23 Z"/></g><g id="Bold-S" transform="matrix(1 0 0 1 2294.23 696)"><path d="M22.486 5.995 Q17.585 5.995 14.217 2.593 Q10.849 -0.81 10.849 -5.642 V-55.349 Q10.849 -60.182 14.217 -63.585 Q17.585 -66.987 22.486 -66.987 H28.404 V-76.455 H37.773 V-66.987 H56.907 V-76.455 H66.276 V-66.987 H72.194 Q77.095 -66.987 80.463 -63.585 Q83.831 -60.182 83.831 -55.349 V-5.642 Q83.831 -0.81 80.463 2.593 Q77.095 5.995 72.194 5.995 H22.486 Z M22.486 -5.642 H72.194 Q72.194 -5.642 72.194 -5.642 Q72.194 -5.642 72.194 -5.642 V-39.964 H22.486 V-5.642 Q22.486 -5.642 22.486 -5.642 Q22.486 -5.642 22.486 -5.642 Z M22.486 -47.065 H72.194 V-55.349 Q72.194 -55.349 72.194 -55.349 Q72.194 -55.349 72.194 -55.349 H22.486 Q22.486 -55.349 22.486 -55.349 Q22.486 -55.349 22.486 -55.349 V-47.065 Z M47.361 -24.973 Q45.525 -24.973 44.263 -26.215 Q43.001 -27.456 43.001 -29.292 Q43.001 -31.127 44.242 -32.39 Q45.484 -33.652 47.319 -33.652 Q49.155 -33.652 50.417 -32.41 Q51.68 -31.169 51.68 -29.333 Q51.68 -27.498 50.438 -26.235 Q49.196 -24.973 47.361 -24.973 Z M31.975 -24.973 Q30.14 -24.973 28.877 -26.215 Q27.615 -27.456 27.615 -29.292 Q27.615 -31.127 28.857 -32.39 Q30.098 -33.652 31.934 -33.652 Q33.769 -33.652 35.032 -32.41 Q36.294 -31.169 36.294 -29.333 Q36.294 -27.498 35.052 -26.235 Q33.811 -24.973 31.975 -24.973 Z M62.746 -24.973 Q61.049 -24.973 59.717 -26.215 Q58.386 -27.456 58.386 -29.292 Q58.386 -31.127 59.697 -32.39 Q61.007 -33.652 62.754 -33.652 Q64.501 -33.652 65.783 -32.41 Q67.065 -31.169 67.065 -29.333 Q67.065 -27.498 65.823 -26.235 Q64.582 -24.973 62.746 -24.973 Z M47.361 -10.771 Q45.525 -10.771 44.263 -12.082 Q43.001 -13.392 43.001 -15.139 Q43.001 -16.886 44.242 -18.168 Q45.484 -19.45 47.319 -19.45 Q49.155 -19.45 50.417 -18.208 Q51.68 -16.967 51.68 -15.131 Q51.68 -13.434 50.438 -12.102 Q49.196 -10.771 47.361 -10.771 Z M31.975 -10.771 Q30.14 -10.771 28.877 -12.082 Q27.615 -13.392 27.615 -15.139 Q27.615 -16.886 28.857 -18.168 Q30.098 -19.45 31.934 -19.45 Q33.769 -19.45 35.032 -18.208 Q36.294 -16.967 36.294 -15.131 Q36.294 -13.434 35.052 -12.102 Q33.811 -10.771 31.975 -10.771 Z M62.746 -10.771 Q61.049 -10.771 59.717 -12.082 Q58.386 -13.392 58.386 -15.139 Q58.386 -16.886 59.697 -18.168 Q61.007 -19.45 62.754 -19.45 Q64.501 -19.45 65.783 -18.208 Q67.065 -16.967 67.065 -15.131 Q67.065 -13.434 65.823 -12.102 Q64.582 -10.771 62.746 -10.771 Z"/></g><g id="Semibold-S" transform="matrix(1 0 0 1 1998.1 696)"><path d="M21.972 4.537 Q17.928 4.537 15.117 1.692 Q12.307 -1.153 12.307 -5.128 V-55.864 Q12.307 -59.839 15.117 -62.684 Q17.928 -65.529 21.972 -65.529 H28.404 V-74.997 H36.787 V-65.529 H57.893 V-74.997 H66.276 V-65.529 H72.708 Q76.752 -65.529 79.563 -62.684 Q82.373 -59.839 82.373 -55.864 V-5.128 Q82.373 -1.153 79.563 1.692 Q76.752 4.537 72.708 4.537 H21.972 Z M21.972 -5.128 H72.708 Q72.708 -5.128 72.708 -5.128 Q72.708 -5.128 72.708 -5.128 V-39.964 H21.972 V-5.128 Q21.972 -5.128 21.972 -5.128 Q21.972 -5.128 21.972 -5.128 Z M21.972 -47.065 H72.708 V-55.864 Q72.708 -55.864 72.708 -55.864 Q72.708 -55.864 72.708 -55.864 H21.972 Q21.972 -55.864 21.972 -55.864 Q21.972 -55.864 21.972 -55.864 V-47.065 Z M47.361 -25.316 Q45.671 -25.316 44.507 -26.459 Q43.344 -27.602 43.344 -29.292 Q43.344 -30.981 44.487 -32.145 Q45.63 -33.309 47.319 -33.309 Q49.009 -33.309 50.173 -32.166 Q51.336 -31.023 51.336 -29.333 Q51.336 -27.644 50.193 -26.48 Q49.05 -25.316 47.361 -25.316 Z M31.975 -25.316 Q30.286 -25.316 29.122 -26.459 Q27.958 -27.602 27.958 -29.292 Q27.958 -30.981 29.101 -32.145 Q30.244 -33.309 31.934 -33.309 Q33.623 -33.309 34.787 -32.166 Q35.951 -31.023 35.951 -29.333 Q35.951 -27.644 34.808 -26.48 Q33.665 -25.316 31.975 -25.316 Z M62.746 -25.316 Q61.135 -25.316 59.932 -26.459 Q58.729 -27.602 58.729 -29.292 Q58.729 -30.981 59.911 -32.145 Q61.093 -33.309 62.733 -33.309 Q64.372 -33.309 65.547 -32.166 Q66.722 -31.023 66.722 -29.333 Q66.722 -27.644 65.579 -26.48 Q64.436 -25.316 62.746 -25.316 Z M47.361 -11.114 Q45.671 -11.114 44.507 -12.296 Q43.344 -13.478 43.344 -15.118 Q43.344 -16.757 44.487 -17.932 Q45.63 -19.107 47.319 -19.107 Q49.009 -19.107 50.173 -17.964 Q51.336 -16.821 51.336 -15.131 Q51.336 -13.52 50.193 -12.317 Q49.05 -11.114 47.361 -11.114 Z M31.975 -11.114 Q30.286 -11.114 29.122 -12.296 Q27.958 -13.478 27.958 -15.118 Q27.958 -16.757 29.101 -17.932 Q30.244 -19.107 31.934 -19.107 Q33.623 -19.107 34.787 -17.964 Q35.951 -16.821 35.951 -15.131 Q35.951 -13.52 34.808 -12.317 Q33.665 -11.114 31.975 -11.114 Z M62.746 -11.114 Q61.135 -11.114 59.932 -12.296 Q58.729 -13.478 58.729 -15.118 Q58.729 -16.757 59.911 -17.932 Q61.093 -19.107 62.733 -19.107 Q64.372 -19.107 65.547 -17.964 Q66.722 -16.821 66.722 -15.131 Q66.722 -13.52 65.579 -12.317 Q64.436 -11.114 62.746 -11.114 Z"/></g><g id="Medium-S" transform="matrix(1 0 0 1 1701.85 696)"><path d="M21.586 3.444 Q18.185 3.444 15.793 1.017 Q13.4 -1.41 13.4 -4.742 V-56.25 Q13.4 -59.582 15.793 -62.009 Q18.185 -64.436 21.586 -64.436 H28.404 V-73.904 H36.047 V-64.436 H58.633 V-73.904 H66.276 V-64.436 H73.094 Q76.495 -64.436 78.887 -62.009 Q81.28 -59.582 81.28 -56.25 V-4.742 Q81.28 -1.41 78.887 1.017 Q76.495 3.444 73.094 3.444 H21.586 Z M21.586 -4.742 H73.094 Q73.094 -4.742 73.094 -4.742 Q73.094 -4.742 73.094 -4.742 V-39.964 H21.586 V-4.742 Q21.586 -4.742 21.586 -4.742 Q21.586 -4.742 21.586 -4.742 Z M21.586 -47.065 H73.094 V-56.25 Q73.094 -56.25 73.094 -56.25 Q73.094 -56.25 73.094 -56.25 H21.586 Q21.586 -56.25 21.586 -56.25 Q21.586 -56.25 21.586 -56.25 V-47.065 Z M47.361 -25.573 Q45.78 -25.573 44.691 -26.642 Q43.601 -27.711 43.601 -29.292 Q43.601 -30.872 44.67 -31.962 Q45.739 -33.052 47.319 -33.052 Q48.9 -33.052 49.989 -31.983 Q51.079 -30.914 51.079 -29.333 Q51.079 -27.753 50.01 -26.663 Q48.941 -25.573 47.361 -25.573 Z M31.975 -25.573 Q30.395 -25.573 29.305 -26.642 Q28.215 -27.711 28.215 -29.292 Q28.215 -30.872 29.284 -31.962 Q30.353 -33.052 31.934 -33.052 Q33.514 -33.052 34.604 -31.983 Q35.694 -30.914 35.694 -29.333 Q35.694 -27.753 34.625 -26.663 Q33.556 -25.573 31.975 -25.573 Z M62.746 -25.573 Q61.199 -25.573 60.093 -26.642 Q58.986 -27.711 58.986 -29.292 Q58.986 -30.872 60.072 -31.962 Q61.157 -33.052 62.717 -33.052 Q64.276 -33.052 65.37 -31.983 Q66.465 -30.914 66.465 -29.333 Q66.465 -27.753 65.396 -26.663 Q64.327 -25.573 62.746 -25.573 Z M47.361 -11.371 Q45.78 -11.371 44.691 -12.457 Q43.601 -13.542 43.601 -15.102 Q43.601 -16.661 44.67 -17.755 Q45.739 -18.85 47.319 -18.85 Q48.9 -18.85 49.989 -17.781 Q51.079 -16.712 51.079 -15.131 Q51.079 -13.584 50.01 -12.478 Q48.941 -11.371 47.361 -11.371 Z M31.975 -11.371 Q30.395 -11.371 29.305 -12.457 Q28.215 -13.542 28.215 -15.102 Q28.215 -16.661 29.284 -17.755 Q30.353 -18.85 31.934 -18.85 Q33.514 -18.85 34.604 -17.781 Q35.694 -16.712 35.694 -15.131 Q35.694 -13.584 34.625 -12.478 Q33.556 -11.371 31.975 -11.371 Z M62.746 -11.371 Q61.199 -11.371 60.093 -12.457 Q58.986 -13.542 58.986 -15.102 Q58.986 -16.661 60.072 -17.755 Q61.157 -18.85 62.717 -18.85 Q64.276 -18.85 65.37 -17.781 Q66.465 -16.712 66.465 -15.131 Q66.465 -13.584 65.396 -12.478 Q64.327 -11.371 62.746 -11.371 Z"/></g><g id="Regular-S" transform="matrix(1 0 0 1 1405.73 696)"><path d="M21.303 2.642 Q18.374 2.642 16.288 0.522 Q14.202 -1.599 14.202 -4.459 V-56.533 Q14.202 -59.393 16.288 -61.514 Q18.374 -63.634 21.303 -63.634 H28.404 V-73.102 H35.505 V-63.634 H59.175 V-73.102 H66.276 V-63.634 H73.377 Q76.306 -63.634 78.392 -61.514 Q80.478 -59.393 80.478 -56.533 V-4.459 Q80.478 -1.599 78.392 0.522 Q76.306 2.642 73.377 2.642 H21.303 Z M21.303 -4.459 H73.377 Q73.377 -4.459 73.377 -4.459 Q73.377 -4.459 73.377 -4.459 V-39.964 H21.303 V-4.459 Q21.303 -4.459 21.303 -4.459 Q21.303 -4.459 21.303 -4.459 Z M21.303 -47.065 H73.377 V-56.533 Q73.377 -56.533 73.377 -56.533 Q73.377 -56.533 73.377 -56.533 H21.303 Q21.303 -56.533 21.303 -56.533 Q21.303 -56.533 21.303 -56.533 V-47.065 Z M47.361 -25.762 Q45.861 -25.762 44.825 -26.777 Q43.79 -27.792 43.79 -29.292 Q43.79 -30.792 44.804 -31.827 Q45.819 -32.863 47.319 -32.863 Q48.819 -32.863 49.855 -31.848 Q50.891 -30.833 50.891 -29.333 Q50.891 -27.833 49.876 -26.798 Q48.861 -25.762 47.361 -25.762 Z M31.975 -25.762 Q30.475 -25.762 29.44 -26.777 Q28.404 -27.792 28.404 -29.292 Q28.404 -30.792 29.419 -31.827 Q30.434 -32.863 31.934 -32.863 Q33.434 -32.863 34.469 -31.848 Q35.505 -30.833 35.505 -29.333 Q35.505 -27.833 34.49 -26.798 Q33.475 -25.762 31.975 -25.762 Z M62.746 -25.762 Q61.246 -25.762 60.211 -26.777 Q59.175 -27.792 59.175 -29.292 Q59.175 -30.792 60.19 -31.827 Q61.205 -32.863 62.705 -32.863 Q64.205 -32.863 65.24 -31.848 Q66.276 -30.833 66.276 -29.333 Q66.276 -27.833 65.261 -26.798 Q64.246 -25.762 62.746 -25.762 Z M47.361 -11.56 Q45.861 -11.56 44.825 -12.575 Q43.79 -13.59 43.79 -15.09 Q43.79 -16.59 44.804 -17.625 Q45.819 -18.661 47.319 -18.661 Q48.819 -18.661 49.855 -17.646 Q50.891 -16.631 50.891 -15.131 Q50.891 -13.631 49.876 -12.596 Q48.861 -11.56 47.361 -11.56 Z M31.975 -11.56 Q30.475 -11.56 29.44 -12.575 Q28.404 -13.59 28.404 -15.09 Q28.404 -16.59 29.419 -17.625 Q30.434 -18.661 31.934 -18.661 Q33.434 -18.661 34.469 -17.646 Q35.505 -16.631 35.505 -15.131 Q35.505 -13.631 34.49 -12.596 Q33.475 -11.56 31.975 -11.56 Z M62.746 -11.56 Q61.246 -11.56 60.211 -12.575 Q59.175 -13.59 59.175 -15.09 Q59.175 -16.59 60.19 -17.625 Q61.205 -18.661 62.705 -18.661 Q64.205 -18.661 65.24 -17.646 Q66.276 -16.631 66.276 -15.131 Q66.276 -13.631 65.261 -12.596 Q64.246 -11.56 62.746 -11.56 Z"/></g><g id="Light-S" transform="matrix(1 0 0 1 1109.75 696)"><path d="M22.517 0.669 Q19.853 0.669 18.014 -1.204 Q16.175 -3.078 16.175 -5.673 V-55.319 Q16.175 -57.914 18.014 -59.788 Q19.853 -61.661 22.517 -61.661 H31.135 V-71.585 H36.415 V-61.661 H58.416 V-71.585 H63.545 V-61.661 H72.163 Q74.827 -61.661 76.666 -59.788 Q78.505 -57.914 78.505 -55.319 V-5.673 Q78.505 -3.078 76.666 -1.204 Q74.827 0.669 72.163 0.669 H22.517 Z M22.517 -4.459 H72.163 Q72.618 -4.459 72.998 -4.838 Q73.377 -5.218 73.377 -5.673 V-38.75 H21.303 V-5.673 Q21.303 -5.218 21.682 -4.838 Q22.062 -4.459 22.517 -4.459 Z M21.303 -43.878 H73.377 V-55.319 Q73.377 -55.774 72.998 -56.154 Q72.618 -56.533 72.163 -56.533 H22.517 Q22.062 -56.533 21.682 -56.154 Q21.303 -55.774 21.303 -55.319 V-43.878 Z M47.361 -25.459 Q46.088 -25.459 45.167 -26.359 Q44.245 -27.261 44.245 -28.533 Q44.245 -29.806 45.146 -30.727 Q46.047 -31.649 47.319 -31.649 Q48.592 -31.649 49.513 -30.748 Q50.435 -29.847 50.435 -28.575 Q50.435 -27.302 49.534 -26.38 Q48.633 -25.459 47.361 -25.459 Z M31.975 -25.459 Q30.703 -25.459 29.781 -26.359 Q28.859 -27.261 28.859 -28.533 Q28.859 -29.806 29.76 -30.727 Q30.661 -31.649 31.934 -31.649 Q33.206 -31.649 34.128 -30.748 Q35.05 -29.847 35.05 -28.575 Q35.05 -27.302 34.149 -26.38 Q33.248 -25.459 31.975 -25.459 Z M62.746 -25.459 Q61.474 -25.459 60.552 -26.359 Q59.63 -27.261 59.63 -28.533 Q59.63 -29.806 60.531 -30.727 Q61.432 -31.649 62.705 -31.649 Q63.977 -31.649 64.899 -30.748 Q65.821 -29.847 65.821 -28.575 Q65.821 -27.302 64.92 -26.38 Q64.019 -25.459 62.746 -25.459 Z M47.361 -11.56 Q46.088 -11.56 45.167 -12.461 Q44.245 -13.362 44.245 -14.635 Q44.245 -15.907 45.146 -16.829 Q46.047 -17.751 47.319 -17.751 Q48.592 -17.751 49.513 -16.85 Q50.435 -15.949 50.435 -14.676 Q50.435 -13.403 49.534 -12.482 Q48.633 -11.56 47.361 -11.56 Z M31.975 -11.56 Q30.703 -11.56 29.781 -12.461 Q28.859 -13.362 28.859 -14.635 Q28.859 -15.907 29.76 -16.829 Q30.661 -17.751 31.934 -17.751 Q33.206 -17.751 34.128 -16.85 Q35.05 -15.949 35.05 -14.676 Q35.05 -13.403 34.149 -12.482 Q33.248 -11.56 31.975 -11.56 Z M62.746 -11.56 Q61.474 -11.56 60.552 -12.461 Q59.63 -13.362 59.63 -14.635 Q59.63 -15.907 60.531 -16.829 Q61.432 -17.751 62.705 -17.751 Q63.977 -17.751 64.899 -16.85 Q65.821 -15.949 65.821 -14.676 Q65.821 -13.403 64.92 -12.482 Q64.019 -11.56 62.746 -11.56 Z"/></g><g id="Thin-S" transform="matrix(1 0 0 1 814.015 696)"><path d="M23.731 -1.303 Q21.333 -1.303 19.74 -2.93 Q18.147 -4.558 18.147 -6.887 V-54.105 Q18.147 -56.434 19.74 -58.062 Q21.333 -59.689 23.731 -59.689 H33.866 V-70.067 H37.326 V-59.689 H57.658 V-70.067 H60.814 V-59.689 H70.949 Q73.347 -59.689 74.94 -58.062 Q76.533 -56.434 76.533 -54.105 V-6.887 Q76.533 -4.558 74.94 -2.93 Q73.347 -1.303 70.949 -1.303 H23.731 Z M23.731 -4.459 H70.949 Q71.86 -4.459 72.618 -5.218 Q73.377 -5.976 73.377 -6.887 V-37.536 H21.303 V-6.887 Q21.303 -5.976 22.062 -5.218 Q22.82 -4.459 23.731 -4.459 Z M21.303 -40.692 H73.377 V-54.105 Q73.377 -55.016 72.618 -55.774 Q71.86 -56.533 70.949 -56.533 H23.731 Q22.82 -56.533 22.062 -55.774 Q21.303 -55.016 21.303 -54.105 V-40.692 Z M47.361 -25.155 Q46.316 -25.155 45.508 -25.942 Q44.7 -26.73 44.7 -27.774 Q44.7 -28.819 45.487 -29.627 Q46.274 -30.435 47.319 -30.435 Q48.364 -30.435 49.172 -29.648 Q49.98 -28.861 49.98 -27.816 Q49.98 -26.771 49.193 -25.963 Q48.406 -25.155 47.361 -25.155 Z M31.975 -25.155 Q30.93 -25.155 30.122 -25.942 Q29.314 -26.73 29.314 -27.774 Q29.314 -28.819 30.102 -29.627 Q30.889 -30.435 31.934 -30.435 Q32.979 -30.435 33.787 -29.648 Q34.595 -28.861 34.595 -27.816 Q34.595 -26.771 33.807 -25.963 Q33.02 -25.155 31.975 -25.155 Z M62.746 -25.155 Q61.701 -25.155 60.893 -25.942 Q60.085 -26.73 60.085 -27.774 Q60.085 -28.819 60.873 -29.627 Q61.66 -30.435 62.705 -30.435 Q63.75 -30.435 64.558 -29.648 Q65.366 -28.861 65.366 -27.816 Q65.366 -26.771 64.578 -25.963 Q63.791 -25.155 62.746 -25.155 Z M47.361 -11.56 Q46.316 -11.56 45.508 -12.347 Q44.7 -13.134 44.7 -14.179 Q44.7 -15.224 45.487 -16.032 Q46.274 -16.84 47.319 -16.84 Q48.364 -16.84 49.172 -16.053 Q49.98 -15.266 49.98 -14.221 Q49.98 -13.176 49.193 -12.368 Q48.406 -11.56 47.361 -11.56 Z M31.975 -11.56 Q30.93 -11.56 30.122 -12.347 Q29.314 -13.134 29.314 -14.179 Q29.314 -15.224 30.102 -16.032 Q30.889 -16.84 31.934 -16.84 Q32.979 -16.84 33.787 -16.053 Q34.595 -15.266 34.595 -14.221 Q34.595 -13.176 33.807 -12.368 Q33.02 -11.56 31.975 -11.56 Z M62.746 -11.56 Q61.701 -11.56 60.893 -12.347 Q60.085 -13.134 60.085 -14.179 Q60.085 -15.224 60.873 -16.032 Q61.66 -16.84 62.705 -16.84 Q63.75 -16.84 64.558 -16.053 Q65.366 -15.266 65.366 -14.221 Q65.366 -13.176 64.578 -12.368 Q63.791 -11.56 62.746 -11.56 Z"/></g><g id="Ultralight-S" transform="matrix(1 0 0 1 517.792 696)"><path d="M24.459 -2.486 Q22.22 -2.486 20.775 -3.966 Q19.331 -5.445 19.331 -7.615 V-53.377 Q19.331 -55.547 20.775 -57.026 Q22.22 -58.505 24.459 -58.505 H35.505 V-69.157 H37.872 V-58.505 H57.203 V-69.157 H59.175 V-58.505 H70.221 Q72.46 -58.505 73.905 -57.026 Q75.35 -55.547 75.35 -53.377 V-7.615 Q75.35 -5.445 73.905 -3.966 Q72.46 -2.486 70.221 -2.486 H24.459 Z M24.459 -4.459 H70.221 Q71.404 -4.459 72.391 -5.445 Q73.377 -6.431 73.377 -7.615 V-36.808 H21.303 V-7.615 Q21.303 -6.431 22.289 -5.445 Q23.276 -4.459 24.459 -4.459 Z M21.303 -38.78 H73.377 V-53.377 Q73.377 -54.56 72.391 -55.547 Q71.404 -56.533 70.221 -56.533 H24.459 Q23.276 -56.533 22.289 -55.547 Q21.303 -54.56 21.303 -53.377 V-38.78 Z M47.361 -24.973 Q46.452 -24.973 45.713 -25.692 Q44.973 -26.411 44.973 -27.319 Q44.973 -28.228 45.692 -28.967 Q46.411 -29.707 47.319 -29.707 Q48.228 -29.707 48.967 -28.988 Q49.707 -28.269 49.707 -27.361 Q49.707 -26.452 48.988 -25.713 Q48.269 -24.973 47.361 -24.973 Z M31.975 -24.973 Q31.067 -24.973 30.327 -25.692 Q29.588 -26.411 29.588 -27.319 Q29.588 -28.228 30.306 -28.967 Q31.025 -29.707 31.934 -29.707 Q32.842 -29.707 33.582 -28.988 Q34.322 -28.269 34.322 -27.361 Q34.322 -26.452 33.603 -25.713 Q32.884 -24.973 31.975 -24.973 Z M62.746 -24.973 Q61.838 -24.973 61.098 -25.692 Q60.358 -26.411 60.358 -27.319 Q60.358 -28.228 61.077 -28.967 Q61.796 -29.707 62.705 -29.707 Q63.613 -29.707 64.353 -28.988 Q65.093 -28.269 65.093 -27.361 Q65.093 -26.452 64.374 -25.713 Q63.655 -24.973 62.746 -24.973 Z M47.361 -11.56 Q46.452 -11.56 45.713 -12.279 Q44.973 -12.998 44.973 -13.906 Q44.973 -14.815 45.692 -15.554 Q46.411 -16.294 47.319 -16.294 Q48.228 -16.294 48.967 -15.575 Q49.707 -14.856 49.707 -13.948 Q49.707 -13.039 48.988 -12.3 Q48.269 -11.56 47.361 -11.56 Z M31.975 -11.56 Q31.067 -11.56 30.327 -12.279 Q29.588 -12.998 29.588 -13.906 Q29.588 -14.815 30.306 -15.554 Q31.025 -16.294 31.934 -16.294 Q32.842 -16.294 33.582 -15.575 Q34.322 -14.856 34.322 -13.948 Q34.322 -13.039 33.603 -12.3 Q32.884 -11.56 31.975 -11.56 Z M62.746 -11.56 Q61.838 -11.56 61.098 -12.279 Q60.358 -12.998 60.358 -13.906 Q60.358 -14.815 61.077 -15.554 Q61.796 -16.294 62.705 -16.294 Q63.613 -16.294 64.353 -15.575 Q65.093 -14.856 65.093 -13.948 Q65.093 -13.039 64.374 -12.3 Q63.655 -11.56 62.746 -11.56 Z"/></g></g></svg>